<svg xmlns="http://www.w3.org/2000/svg" fill="none" viewBox="0 0 24 24" id="Soccer-Match-Ticket-2--Streamline-Ultimate" height="24" width="24"><desc>Soccer Match Ticket 2 Streamline Icon: https://streamlinehq.com</desc><path fill="#000000" fill-rule="evenodd" d="M2.08 0C0.955 0 0 0.956 0 2.08v3.366c0 0.415 0.336 0.75 0.75 0.75 1.092 0 1.908 0.817 1.908 1.909S1.842 10.013 0.75 10.013a0.75 0.75 0 0 0 -0.75 0.75v3.367c0 1.123 0.956 2.08 2.08 2.08h8.069c0.702 -3.57 3.807 -6.21 7.601 -6.21 1.34 0 2.595 0.33 3.688 0.913v-0.15a0.75 0.75 0 0 0 -0.75 -0.75c-1.093 0 -1.909 -0.816 -1.909 -1.908s0.816 -1.909 1.909 -1.909a0.75 0.75 0 0 0 0.75 -0.75V2.08c0 -1.124 -0.958 -2.08 -2.08 -2.08H2.08ZM7.5 3a1.125 1.125 0 1 1 0 2.25A1.125 1.125 0 0 1 7.5 3Zm0 3.98a1.125 1.125 0 1 1 0 2.25 1.125 1.125 0 0 1 0 -2.25Zm0 3.98a1.125 1.125 0 1 1 0 2.25 1.125 1.125 0 0 1 0 -2.25Zm4 6.79c0 -0.453 0.046 -0.893 0.134 -1.316l2.709 1.3 0.796 2.59 -1.683 1.998A6.225 6.225 0 0 1 11.5 17.75Zm3.17 5.46 1.655 -1.966h2.85l1.655 1.965a6.298 6.298 0 0 1 -3.08 0.791 6.3 6.3 0 0 1 -3.08 -0.79Zm7.374 -0.888A6.225 6.225 0 0 0 24 17.75c0 -0.453 -0.046 -0.893 -0.134 -1.316l-2.71 1.3 -0.796 2.589 1.684 2Zm-9.923 -7.318 -0.003 -0.001A6.176 6.176 0 0 1 17 11.543v3.248l-2.116 1.54 -2.763 -1.327Zm11.26 -0.001a6.176 6.176 0 0 0 -4.881 -3.46v3.249l2.116 1.538 2.763 -1.326 0.003 -0.001Zm-6.85 4.74 -0.693 -2.251L17.75 16.1l1.912 1.39 -0.693 2.253H16.53Z" clip-rule="evenodd" stroke-width="1"></path></svg>